<?xml version="1.0" standalone="no"?>
<!DOCTYPE svg PUBLIC "-//W3C//DTD SVG 20010904//EN"
 "http://www.w3.org/TR/2001/REC-SVG-20010904/DTD/svg10.dtd">
<svg version="1.0" xmlns="http://www.w3.org/2000/svg"
 width="225.000000pt" height="224.000000pt" viewBox="0 0 225.000000 224.000000"
 preserveAspectRatio="xMidYMid meet">

<g transform="translate(0.000000,224.000000) scale(0.100000,-0.100000)"
fill="#000000" stroke="none">
<path d="M1373 1866 c-46 -15 -113 -54 -113 -65 0 -19 15 -16 67 12 72 39 166
48 242 22 69 -22 151 -98 182 -167 20 -45 24 -73 27 -191 3 -98 7 -137 15
-134 20 7 15 251 -7 315 -43 127 -159 212 -299 218 -43 2 -89 -2 -114 -10z"/>
<path d="M1392 1778 c-45 -15 -115 -79 -138 -125 -15 -30 -20 -69 -24 -188
l-5 -150 -27 -3 -28 -3 0 153 c0 149 1 155 29 215 19 38 26 65 20 69 -14 8
-35 -21 -59 -84 -17 -45 -20 -76 -20 -207 l0 -155 -24 0 c-13 0 -38 -3 -56 -6
l-32 -7 5 -201 c5 -223 15 -272 72 -385 46 -92 125 -176 248 -262 55 -39 106
-73 113 -76 6 -2 66 34 132 81 174 124 250 225 293 394 15 61 19 110 19 263
l0 188 -32 5 c-18 2 -60 8 -93 13 l-60 8 -6 145 c-4 80 -12 158 -18 175 -36
88 -117 145 -214 151 -34 2 -77 -2 -95 -8z m179 -46 c39 -20 62 -41 84 -76 29
-47 30 -54 33 -187 4 -113 2 -139 -9 -139 -23 1 -100 39 -151 75 -26 19 -52
35 -56 35 -4 0 -24 -12 -43 -26 -37 -28 -111 -67 -146 -78 l-23 -7 0 131 c0
143 10 182 58 234 65 69 164 84 253 38z m17 -397 c66 -32 190 -65 249 -65 l43
0 0 -181 c0 -199 -10 -259 -60 -364 -50 -103 -119 -174 -281 -288 l-66 -46
-105 73 c-160 113 -235 207 -280 351 -20 62 -23 92 -23 260 l0 190 70 8 c113
12 228 54 304 111 l34 25 31 -23 c17 -13 55 -36 84 -51z"/>
<path d="M1420 1316 c-57 -36 -130 -63 -223 -83 l-87 -18 0 -42 c0 -32 4 -43
15 -43 10 0 15 10 15 29 0 28 2 29 93 50 50 12 119 35 152 51 67 33 79 36 72
18 -7 -19 11 -60 23 -53 5 3 10 20 10 36 0 17 3 29 8 27 73 -38 143 -64 215
-82 l87 -21 0 -121 c0 -67 -4 -146 -10 -175 -13 -68 -68 -181 -115 -236 -31
-36 -165 -143 -180 -143 -3 0 -5 29 -5 65 0 51 -3 65 -15 65 -17 0 -18 -4 -16
-78 1 -28 -2 -52 -7 -52 -5 0 -41 23 -80 50 -144 101 -217 233 -229 413 -8
116 -28 113 -27 -4 2 -187 90 -336 276 -463 l81 -55 76 52 c146 100 231 209
266 342 10 41 15 107 15 216 l0 157 -64 11 c-82 14 -167 44 -233 81 -62 35
-67 36 -113 6z"/>
<path d="M1245 1070 c-12 -20 7 -30 56 -30 l49 0 0 -38 c0 -32 -8 -45 -55 -92
-30 -30 -55 -60 -55 -67 0 -9 20 -13 70 -13 56 0 70 3 70 15 0 11 -11 15 -42
15 l-42 0 42 43 c43 43 43 44 40 108 l-3 64 -62 3 c-35 2 -64 -2 -68 -8z"/>
<path d="M1427 1073 c-4 -3 -7 -60 -7 -125 0 -98 3 -118 15 -118 11 0 15 13
15 54 l0 53 37 -1 c28 -1 38 3 41 17 3 14 -4 17 -37 17 -40 0 -41 1 -41 35 l0
35 50 0 c43 0 50 3 50 20 0 18 -7 20 -58 20 -32 0 -62 -3 -65 -7z"/>
<path d="M1581 1043 c-22 -79 -45 -203 -38 -209 12 -12 37 5 37 26 0 17 6 20
40 20 34 0 41 -4 46 -25 6 -24 27 -34 38 -17 2 4 -8 59 -22 122 l-27 115 -32
3 c-29 3 -33 0 -42 -35z m62 -90 c6 -31 5 -33 -22 -33 -29 0 -29 0 -19 43 19
83 23 82 41 -10z"/>
<path d="M369 1701 l-29 -29 0 -627 0 -627 29 -29 29 -29 367 0 366 0 24 24
c35 35 48 133 19 143 -7 2 -13 -17 -16 -53 -3 -40 -10 -61 -23 -70 -15 -11
-92 -14 -375 -14 -333 0 -358 1 -373 18 -15 17 -17 76 -17 639 0 588 1 621 18
636 15 14 42 17 160 17 l142 0 0 -33 c0 -42 27 -68 71 -69 38 -1 79 39 79 78
l0 24 146 0 c112 0 145 3 142 13 -4 9 -88 13 -367 15 l-362 2 -30 -29z m439
-27 c-7 -60 -88 -64 -88 -4 0 29 1 30 46 30 43 0 45 -1 42 -26z"/>
<path d="M447 1622 c-29 -30 -35 -52 -14 -52 14 0 67 56 67 71 0 18 -27 8 -53
-19z"/>
<path d="M502 1567 c-65 -65 -86 -97 -64 -97 10 0 162 153 162 163 0 21 -33
-1 -98 -66z"/>
<path d="M714 1340 c-11 -4 -33 -22 -47 -40 -24 -28 -27 -40 -27 -111 0 -78 0
-79 -25 -79 -39 0 -47 -36 -43 -203 2 -118 6 -150 18 -157 23 -15 333 -13 348
2 17 17 17 329 0 346 -8 8 -54 12 -140 12 l-128 0 0 76 c0 70 2 78 29 105 68
67 161 14 161 -91 0 -49 23 -52 28 -4 10 102 -84 181 -174 144z m204 -412 l-3
-153 -152 -3 -153 -3 0 156 0 155 155 0 156 0 -3 -152z"/>
<path d="M790 950 c-24 -33 -47 -60 -50 -60 -3 0 -17 14 -32 32 -20 25 -30 30
-39 21 -9 -9 -2 -22 27 -57 21 -25 41 -46 45 -46 14 0 121 149 114 159 -11 18
-19 12 -65 -49z"/>
</g>
</svg>
