<?xml version="1.0" standalone="no"?>
<!DOCTYPE svg PUBLIC "-//W3C//DTD SVG 20010904//EN"
 "http://www.w3.org/TR/2001/REC-SVG-20010904/DTD/svg10.dtd">
<svg version="1.0" xmlns="http://www.w3.org/2000/svg"
 width="236.000000pt" height="274.000000pt" viewBox="0 0 236.000000 274.000000"
 preserveAspectRatio="xMidYMid meet">

<g transform="translate(0.000000,274.000000) scale(0.100000,-0.100000)"
fill="#000000" stroke="none">
<path d="M1074 2354 c-90 -33 -165 -124 -185 -226 -9 -44 -8 -66 5 -118 35
-137 141 -220 282 -220 59 0 81 5 132 31 212 106 215 393 5 516 -57 33 -174
42 -239 17z m208 -48 c73 -35 131 -114 144 -194 8 -48 -10 -128 -35 -161 l-18
-24 -7 36 c-6 30 -13 38 -42 47 -64 21 -90 -9 -29 -34 19 -8 35 -19 35 -24 0
-5 3 -23 6 -39 6 -28 3 -32 -47 -57 -81 -40 -203 -31 -258 19 -28 25 -10 87
30 102 16 6 29 19 29 28 0 14 -6 16 -37 10 -45 -8 -54 -16 -69 -58 l-12 -32
-21 45 c-24 53 -28 154 -7 204 27 65 92 123 166 147 37 12 132 4 172 -15z"/>
<path d="M1134 2231 c-36 -16 -64 -60 -64 -103 0 -52 51 -108 99 -108 72 0
130 65 116 130 -13 59 -96 104 -151 81z m71 -43 c46 -21 46 -99 -1 -120 -29
-13 -68 2 -88 34 -15 24 3 70 34 85 30 15 24 15 55 1z"/>
<path d="M783 1980 c-33 -21 -88 -68 -122 -102 -60 -60 -62 -63 -37 -66 20 -3
37 8 74 46 26 27 73 66 104 86 43 29 55 42 51 57 -3 10 -7 19 -8 19 -2 0 -29
-18 -62 -40z"/>
<path d="M1506 2013 c-16 -17 -2 -42 35 -63 57 -31 159 -133 203 -202 34 -54
57 -70 70 -49 10 16 -92 158 -152 211 -64 57 -147 112 -156 103z"/>
<path d="M305 1754 c-19 -14 -20 -28 -23 -365 -3 -320 -2 -353 14 -370 15 -17
33 -19 184 -19 128 0 171 3 186 14 18 14 19 31 22 360 l3 346 -25 25 c-25 25
-28 25 -183 25 -125 -1 -162 -4 -178 -16z m223 -33 l112 -1 0 -340 0 -340
-160 0 -160 0 0 338 c0 186 2 341 5 344 3 3 24 4 48 3 23 -1 93 -3 155 -4z"/>
<path d="M452 1702 c-15 -2 -22 -9 -20 -20 4 -23 80 -29 97 -8 11 13 11 17 0
20 -29 9 -55 12 -77 8z"/>
<path d="M505 1414 c-25 -43 -28 -45 -45 -29 -19 17 -40 13 -40 -8 1 -17 47
-67 62 -67 18 0 81 117 74 135 -9 25 -23 17 -51 -31z"/>
<path d="M1750 1646 l-75 -11 -3 -175 c-2 -104 1 -190 8 -212 13 -44 66 -93
138 -126 52 -24 55 -24 97 -8 69 27 125 73 146 121 17 39 19 64 17 222 l-3
178 -80 12 c-98 14 -148 14 -245 -1z m253 -43 l38 -6 -3 -167 c-3 -163 -4
-167 -30 -202 -28 -37 -102 -78 -141 -78 -33 0 -114 54 -137 92 -18 29 -20 51
-20 195 l0 162 58 6 c31 4 62 8 67 10 11 5 105 -2 168 -12z"/>
<path d="M1853 1572 c-12 -2 -33 -14 -47 -27 -33 -31 -37 -102 -6 -130 16 -14
20 -33 22 -109 l3 -91 31 -3 c45 -4 74 44 74 123 0 42 5 64 20 82 54 69 -8
169 -97 155z m61 -58 c23 -23 19 -57 -9 -84 -22 -21 -25 -32 -25 -97 0 -40 -3
-73 -7 -73 -5 0 -8 33 -8 74 0 63 -3 78 -22 98 -25 27 -29 49 -13 79 13 23 62
26 84 3z"/>
<path d="M875 1516 c-39 -17 -56 -38 -58 -73 -2 -22 2 -28 18 -28 12 0 21 8
23 20 2 11 9 26 14 33 13 15 70 16 86 0 28 -28 13 -60 -69 -143 -45 -46 -78
-88 -74 -94 4 -7 44 -11 101 -11 86 0 95 2 92 18 -2 13 -15 18 -61 20 l-58 3
61 66 c52 57 60 71 60 105 0 41 -34 88 -64 88 -8 0 -20 2 -28 5 -7 2 -27 -2
-43 -9z"/>
<path d="M1071 1516 c-8 -9 -11 -59 -9 -152 3 -131 4 -139 23 -139 18 0 20 8
23 63 l3 62 69 0 c63 0 70 2 70 20 0 18 -7 20 -69 20 l-69 0 -7 40 c-4 21 -4
44 0 50 3 6 46 10 101 10 74 0 94 3 94 14 0 21 -23 26 -125 26 -67 0 -96 -4
-104 -14z"/>
<path d="M1394 1518 c-19 -30 -121 -284 -117 -290 12 -22 37 -3 56 42 l21 50
54 0 54 0 21 -50 c14 -34 27 -50 39 -50 27 0 22 22 -40 169 -56 132 -72 155
-88 129z m32 -113 c19 -45 19 -45 -16 -45 -16 0 -30 3 -30 7 0 10 24 73 28 73
1 0 10 -16 18 -35z"/>
<path d="M1758 1040 c-16 -28 -28 -53 -27 -56 0 -3 -9 -14 -20 -23 -12 -10
-21 -23 -21 -30 0 -6 -5 -11 -10 -11 -6 0 -29 -17 -53 -38 -23 -21 -57 -48
-74 -61 -30 -20 -46 -61 -24 -61 5 0 35 19 67 43 114 84 246 257 213 278 -21
13 -22 12 -51 -41z"/>
<path d="M619 932 c26 -38 95 -100 155 -141 38 -27 50 -31 57 -20 14 22 12 23
-43 62 -29 20 -73 57 -98 82 -28 28 -53 45 -68 45 l-23 0 20 -28z"/>
<path d="M910 817 c-32 -16 -48 -69 -30 -102 11 -20 11 -28 2 -37 -31 -31 -5
-112 41 -128 41 -14 464 -13 506 1 44 15 51 35 51 139 0 83 -2 93 -25 115
l-24 25 -248 0 c-178 0 -255 -4 -273 -13z m514 -40 c14 -10 16 -26 14 -97 l-3
-85 -257 -3 -258 -2 -1 22 c-4 113 0 161 12 169 23 15 472 11 493 -4z"/>
<path d="M992 708 c-18 -18 -15 -36 7 -48 15 -7 23 -6 35 6 12 12 13 20 6 35
-12 22 -30 25 -48 7z"/>
<path d="M1102 708 c-7 -7 -12 -18 -12 -25 0 -15 30 -32 48 -26 17 7 15 50 -4
57 -20 8 -18 8 -32 -6z"/>
<path d="M1210 705 c-18 -21 -5 -47 22 -43 26 3 37 36 16 49 -18 12 -24 11
-38 -6z"/>
<path d="M1323 713 c-18 -6 -16 -50 1 -56 8 -3 22 1 33 8 28 21 -1 62 -34 48z"/>
<path d="M0 150 c0 -31 23 -43 33 -17 4 9 8 9 15 -2 7 -10 28 -14 66 -12 55 1
56 1 57 -26 l1 -28 8 30 c7 28 8 27 9 -12 1 -33 -3 -43 -15 -43 -8 0 -12 4 -9
10 3 5 -1 10 -9 10 -8 0 -16 12 -19 28 l-4 27 -2 -27 c0 -16 -5 -28 -10 -28
-5 0 -12 12 -14 28 l-4 27 -2 -27 c-1 -27 -3 -28 -51 -28 -49 0 -50 -1 -50
-30 l0 -30 1180 0 1180 0 0 29 c0 23 -5 31 -22 34 l-23 4 23 2 c20 1 22 6 22
56 l0 55 -1180 0 -1180 0 0 -30z m2163 -87 c-13 -2 -33 -2 -45 0 -13 2 -3 4
22 4 25 0 35 -2 23 -4z m115 0 c-10 -2 -28 -2 -40 0 -13 2 -5 4 17 4 22 1 32
-1 23 -4z"/>
</g>
</svg>
